# xmcd CD database file
#
# Track frame offsets:
#	150
#	16415
#	40585
#	55905
#	79197
#	95655
#	118517
#	136557
#	152025
#	169375
#
# Disc length: 2451 seconds
#
# Revision: 5
# Processed by: cddbd v1.5.2PL0 Copyright (c) Steve Scherf et al.
# Submitted via: CDex 1.51
#
DISCID=7609910a
DTITLE=New England - New England
DYEAR=1979
DGENRE=Rock
TTITLE0=Hello, Hello, Hello
TTITLE1=Don't Ever Wanna Lose Ya
TTITLE2=P.U.N.K. (Puny Undernourished Kid)
TTITLE3=Shall I Run Away
TTITLE4=Alone Tonight
TTITLE5=Nothing To Fear
TTITLE6=Shoot
TTITLE7=Turn Out the Light
TTITLE8=The Last Show
TTITLE9=Encore
EXTD=YEAR: 1979
EXTT0=
EXTT1=
EXTT2=
EXTT3=
EXTT4=
EXTT5=
EXTT6=
EXTT7=
EXTT8=
EXTT9=
PLAYORDER=
